<?xml version="1.0" encoding="utf-8"?>
<!-- Generator: Adobe Illustrator 16.0.0, SVG Export Plug-In . SVG Version: 6.00 Build 0)  -->
<!DOCTYPE svg PUBLIC "-//W3C//DTD SVG 1.1//EN" "http://www.w3.org/Graphics/SVG/1.1/DTD/svg11.dtd">
<svg version="1.1" id="Capa_1" xmlns="http://www.w3.org/2000/svg" xmlns:xlink="http://www.w3.org/1999/xlink" x="0px" y="0px"
	 width="1200px" height="120px" viewBox="0 0 1200 120" enable-background="new 0 0 1200 120" xml:space="preserve">
<g>
	<g>
		<path d="M69.848,79.848h5.965V94.4h9.31v4.752H69.848V79.848z"/>
		<path d="M86.624,89.514c0-3.152,0.877-5.604,2.633-7.361c1.756-1.756,4.201-2.633,7.334-2.633c3.213,0,5.689,0.862,7.427,2.588
			c1.738,1.726,2.607,4.142,2.607,7.248c0,2.258-0.38,4.105-1.139,5.552c-0.759,1.444-1.856,2.567-3.292,3.37
			c-1.435,0.804-3.224,1.205-5.366,1.205c-2.177,0-3.979-0.348-5.406-1.041c-1.426-0.692-2.583-1.791-3.47-3.291
			C87.067,93.648,86.624,91.77,86.624,89.514z M92.589,89.541c0,1.948,0.362,3.348,1.086,4.199c0.725,0.852,1.71,1.277,2.957,1.277
			c1.282,0,2.274-0.418,2.976-1.25c0.703-0.836,1.054-2.332,1.054-4.492c0-1.815-0.367-3.145-1.1-3.982
			c-0.733-0.839-1.728-1.258-2.983-1.258c-1.202,0-2.168,0.427-2.896,1.277C92.953,86.164,92.589,87.573,92.589,89.541z"/>
		<path d="M119.544,92.16v-4.016h9.217v8.229c-1.765,1.203-3.325,2.021-4.681,2.456s-2.965,0.651-4.827,0.651
			c-2.291,0-4.158-0.392-5.603-1.172c-1.444-0.781-2.563-1.944-3.357-3.49c-0.794-1.545-1.192-3.317-1.192-5.319
			c0-2.106,0.435-3.938,1.304-5.497c0.869-1.559,2.142-2.74,3.818-3.55c1.309-0.622,3.068-0.935,5.281-0.935
			c2.133,0,3.729,0.192,4.787,0.58c1.058,0.387,1.936,0.984,2.633,1.797c0.698,0.812,1.223,1.84,1.574,3.088l-5.754,1.027
			c-0.237-0.729-0.639-1.287-1.205-1.673c-0.566-0.387-1.288-0.58-2.166-0.58c-1.309,0-2.351,0.455-3.128,1.363
			c-0.777,0.907-1.165,2.347-1.165,4.312c0,2.09,0.393,3.582,1.178,4.478c0.786,0.896,1.881,1.344,3.286,1.344
			c0.667,0,1.304-0.097,1.909-0.29c0.606-0.191,1.299-0.521,2.081-0.986V92.16H119.544z"/>
		<path d="M131.553,89.514c0-3.152,0.878-5.604,2.634-7.361c1.755-1.756,4.2-2.633,7.334-2.633c3.212,0,5.688,0.862,7.427,2.588
			c1.738,1.726,2.607,4.142,2.607,7.248c0,2.258-0.379,4.105-1.139,5.552c-0.759,1.444-1.857,2.567-3.292,3.37
			c-1.435,0.804-3.224,1.205-5.366,1.205c-2.177,0-3.979-0.348-5.406-1.041c-1.426-0.692-2.583-1.791-3.469-3.291
			C131.997,93.648,131.553,91.77,131.553,89.514z M137.519,89.541c0,1.948,0.361,3.348,1.086,4.199
			c0.724,0.852,1.709,1.277,2.957,1.277c1.282,0,2.273-0.418,2.976-1.25c0.702-0.836,1.053-2.332,1.053-4.492
			c0-1.815-0.367-3.145-1.1-3.982c-0.733-0.838-1.727-1.258-2.982-1.258c-1.203,0-2.168,0.427-2.897,1.277
			C137.882,86.164,137.519,87.573,137.519,89.541z"/>
		<path d="M152.714,79.848h18.132v4.769h-6.084v14.536h-5.965V84.615h-6.083V79.848L152.714,79.848z"/>
		<path d="M173.783,79.848h5.978v19.305h-5.978V79.848z"/>
		<path d="M184.014,79.848h9.916c2.159,0,3.777,0.516,4.853,1.543c1.075,1.025,1.613,2.487,1.613,4.385
			c0,1.947-0.586,3.472-1.758,4.567c-1.172,1.099-2.96,1.646-5.366,1.646h-3.266v7.163h-5.992V79.848z M190.006,88.079h1.462
			c1.15,0,1.958-0.2,2.423-0.601c0.465-0.399,0.698-0.91,0.698-1.533c0-0.606-0.202-1.12-0.605-1.541
			c-0.404-0.422-1.164-0.633-2.278-0.633h-1.699L190.006,88.079L190.006,88.079z"/>
		<path d="M202.766,89.514c0-3.152,0.877-5.604,2.633-7.361c1.756-1.756,4.2-2.633,7.334-2.633c3.213,0,5.688,0.862,7.427,2.588
			c1.738,1.726,2.607,4.142,2.607,7.248c0,2.258-0.38,4.105-1.139,5.552c-0.759,1.444-1.856,2.567-3.292,3.37
			c-1.435,0.804-3.224,1.205-5.366,1.205c-2.177,0-3.979-0.348-5.406-1.041c-1.426-0.692-2.583-1.791-3.47-3.291
			C203.207,93.648,202.766,91.77,202.766,89.514z M208.731,89.541c0,1.948,0.362,3.348,1.086,4.199
			c0.725,0.852,1.71,1.277,2.957,1.277c1.282,0,2.273-0.418,2.976-1.25c0.703-0.836,1.053-2.332,1.053-4.492
			c0-1.815-0.366-3.145-1.099-3.982c-0.733-0.839-1.728-1.258-2.983-1.258c-1.203,0-2.168,0.427-2.896,1.277
			C209.095,86.164,208.731,87.573,208.731,89.541z"/>
	</g>
	<g>
		<path d="M146.308,69.454c-14.745,0-26.74-11.995-26.74-26.74c0-14.744,11.995-26.74,26.74-26.74s26.74,11.996,26.74,26.74
			C173.048,57.459,161.053,69.454,146.308,69.454z M146.308,20.748c-12.113,0-21.967,9.854-21.967,21.967
			c0,12.113,9.854,21.967,21.967,21.967c12.113,0,21.967-9.854,21.967-21.967C168.275,30.602,158.421,20.748,146.308,20.748z"/>
		<path d="M137.32,29.734h8.023v19.569h12.521v6.394H137.32V29.734z"/>
	</g>
</g>
<g>
	<g>
		<path d="M408.312,50.847h5.965v14.551h9.31v4.754h-15.274V50.847z"/>
		<path d="M425.088,60.514c0-3.153,0.877-5.605,2.633-7.362c1.756-1.756,4.201-2.633,7.334-2.633c3.213,0,5.689,0.862,7.428,2.587
			c1.737,1.726,2.606,4.142,2.606,7.249c0,2.256-0.38,4.106-1.139,5.551c-0.759,1.443-1.856,2.566-3.292,3.371
			c-1.436,0.803-3.225,1.203-5.366,1.203c-2.177,0-3.979-0.347-5.406-1.039c-1.426-0.693-2.583-1.791-3.47-3.293
			C425.532,64.648,425.088,62.77,425.088,60.514z M431.053,60.541c0,1.948,0.362,3.348,1.086,4.2
			c0.726,0.852,1.71,1.276,2.957,1.276c1.282,0,2.274-0.418,2.977-1.25c0.703-0.836,1.054-2.332,1.054-4.492
			c0-1.816-0.367-3.145-1.1-3.983c-0.733-0.839-1.729-1.258-2.983-1.258c-1.202,0-2.168,0.427-2.896,1.278
			C431.417,57.164,431.053,58.573,431.053,60.541z"/>
		<path d="M458.008,63.16v-4.016h9.217v8.229c-1.765,1.203-3.324,2.021-4.681,2.457c-1.355,0.434-2.965,0.65-4.827,0.65
			c-2.291,0-4.158-0.392-5.603-1.172c-1.444-0.781-2.563-1.943-3.357-3.488s-1.191-3.318-1.191-5.321
			c0-2.106,0.435-3.939,1.304-5.497c0.869-1.559,2.142-2.741,3.818-3.55c1.309-0.622,3.067-0.934,5.28-0.934
			c2.133,0,3.729,0.192,4.787,0.579c1.059,0.387,1.937,0.985,2.633,1.797c0.698,0.812,1.224,1.841,1.574,3.089l-5.754,1.027
			c-0.237-0.729-0.639-1.287-1.205-1.673c-0.565-0.387-1.288-0.58-2.166-0.58c-1.309,0-2.351,0.455-3.128,1.363
			c-0.777,0.908-1.165,2.347-1.165,4.312c0,2.089,0.394,3.582,1.178,4.476c0.786,0.896,1.882,1.344,3.286,1.344
			c0.667,0,1.305-0.096,1.909-0.289c0.606-0.193,1.299-0.521,2.081-0.988V63.16H458.008z"/>
		<path d="M470.017,60.514c0-3.153,0.878-5.605,2.635-7.362c1.755-1.756,4.199-2.633,7.334-2.633c3.212,0,5.688,0.862,7.427,2.587
			c1.738,1.726,2.606,4.142,2.606,7.249c0,2.256-0.379,4.106-1.139,5.551c-0.759,1.443-1.856,2.566-3.292,3.371
			c-1.435,0.803-3.224,1.203-5.366,1.203c-2.177,0-3.979-0.347-5.405-1.039c-1.427-0.693-2.583-1.791-3.47-3.293
			C470.461,64.648,470.017,62.77,470.017,60.514z M475.983,60.541c0,1.948,0.36,3.348,1.086,4.2
			c0.724,0.852,1.709,1.276,2.957,1.276c1.281,0,2.272-0.418,2.976-1.25c0.702-0.836,1.053-2.332,1.053-4.492
			c0-1.816-0.366-3.145-1.1-3.983s-1.727-1.258-2.982-1.258c-1.203,0-2.168,0.427-2.896,1.278
			C476.347,57.164,475.983,58.573,475.983,60.541z"/>
		<path d="M491.179,50.847h18.132v4.768h-6.084v14.537h-5.965V55.615h-6.083V50.847L491.179,50.847z"/>
		<path d="M512.248,50.847h5.978v19.305h-5.978V50.847z"/>
		<path d="M522.479,50.847h9.916c2.159,0,3.777,0.515,4.854,1.542c1.075,1.026,1.613,2.488,1.613,4.385
			c0,1.948-0.586,3.472-1.758,4.568c-1.173,1.098-2.961,1.646-5.366,1.646h-3.267v7.164h-5.992V50.847z M528.47,59.079h1.462
			c1.15,0,1.958-0.2,2.423-0.601c0.466-0.399,0.698-0.91,0.698-1.533c0-0.606-0.202-1.12-0.604-1.541
			c-0.404-0.422-1.164-0.632-2.278-0.632h-1.699L528.47,59.079L528.47,59.079z"/>
		<path d="M541.23,60.514c0-3.153,0.877-5.605,2.633-7.362c1.756-1.756,4.199-2.633,7.334-2.633c3.213,0,5.688,0.862,7.427,2.587
			c1.738,1.726,2.606,4.142,2.606,7.249c0,2.256-0.38,4.106-1.139,5.551c-0.759,1.443-1.855,2.566-3.292,3.371
			c-1.435,0.803-3.224,1.203-5.366,1.203c-2.177,0-3.979-0.347-5.405-1.039c-1.427-0.693-2.583-1.791-3.471-3.293
			C541.673,64.648,541.23,62.77,541.23,60.514z M547.195,60.541c0,1.948,0.361,3.348,1.086,4.2c0.725,0.852,1.71,1.276,2.957,1.276
			c1.281,0,2.272-0.418,2.976-1.25c0.703-0.836,1.053-2.332,1.053-4.492c0-1.816-0.365-3.145-1.099-3.983
			c-0.733-0.839-1.729-1.258-2.983-1.258c-1.202,0-2.168,0.427-2.896,1.278C547.56,57.164,547.195,58.573,547.195,60.541z"/>
	</g>
</g>
<g>
	<g>
		<path d="M983.832,53.666h4.223v10.301h6.592v3.368h-10.814V53.666z"/>
		<path d="M995.71,60.51c0-2.232,0.619-3.968,1.863-5.212c1.244-1.243,2.974-1.863,5.192-1.863c2.273,0,4.027,0.61,5.259,1.831
			c1.229,1.222,1.845,2.932,1.845,5.132c0,1.599-0.269,2.909-0.807,3.932c-0.537,1.021-1.314,1.814-2.33,2.387
			c-1.018,0.568-2.282,0.85-3.801,0.85c-1.542,0-2.816-0.243-3.825-0.733c-1.012-0.491-1.828-1.269-2.458-2.333
			C996.023,63.438,995.71,62.105,995.71,60.51z M999.934,60.529c0,1.379,0.255,2.371,0.767,2.974
			c0.515,0.601,1.212,0.904,2.094,0.904c0.906,0,1.609-0.296,2.107-0.886c0.499-0.592,0.746-1.651,0.746-3.18
			c0-1.287-0.261-2.227-0.777-2.821c-0.521-0.594-1.223-0.89-2.113-0.89c-0.85,0-1.532,0.302-2.051,0.905
			C1000.189,58.138,999.934,59.136,999.934,60.529z"/>
		<path d="M1019.016,62.383v-2.842h6.525v5.827c-1.25,0.853-2.354,1.432-3.313,1.739c-0.959,0.307-2.1,0.459-3.416,0.459
			c-1.621,0-2.943-0.276-3.969-0.828c-1.021-0.553-1.814-1.377-2.378-2.471c-0.561-1.094-0.842-2.349-0.842-3.767
			c0-1.492,0.308-2.79,0.922-3.892c0.617-1.103,1.519-1.941,2.703-2.514c0.928-0.439,2.174-0.661,3.74-0.661
			c1.51,0,2.638,0.137,3.389,0.41c0.748,0.273,1.37,0.697,1.863,1.272c0.494,0.575,0.866,1.303,1.113,2.187l-4.073,0.728
			c-0.169-0.518-0.453-0.912-0.854-1.186c-0.401-0.273-0.911-0.41-1.533-0.41c-0.926,0-1.665,0.322-2.215,0.965
			c-0.55,0.642-0.823,1.661-0.823,3.053c0,1.479,0.276,2.535,0.831,3.17c0.559,0.633,1.333,0.949,2.327,0.949
			c0.473,0,0.923-0.067,1.353-0.204c0.429-0.138,0.92-0.37,1.475-0.699v-1.287L1019.016,62.383L1019.016,62.383z"/>
		<path d="M1027.516,60.51c0-2.232,0.622-3.968,1.866-5.212c1.242-1.243,2.975-1.863,5.191-1.863c2.276,0,4.026,0.61,5.258,1.831
			c1.23,1.222,1.848,2.932,1.848,5.132c0,1.599-0.269,2.909-0.808,3.932c-0.536,1.021-1.312,1.814-2.33,2.387
			c-1.016,0.568-2.281,0.85-3.799,0.85c-1.542,0-2.818-0.243-3.829-0.733c-1.008-0.491-1.828-1.269-2.456-2.333
			C1027.831,63.438,1027.516,62.105,1027.516,60.51z M1031.74,60.529c0,1.379,0.257,2.371,0.77,2.974
			c0.513,0.601,1.212,0.904,2.095,0.904c0.905,0,1.607-0.296,2.106-0.886c0.496-0.592,0.745-1.651,0.745-3.18
			c0-1.287-0.26-2.227-0.78-2.821c-0.518-0.594-1.223-0.89-2.108-0.89c-0.854,0-1.537,0.302-2.053,0.905
			C1032,58.138,1031.74,59.136,1031.74,60.529z"/>
		<path d="M1042.5,53.666h12.838v3.375h-4.31v10.293h-4.224V57.042h-4.306L1042.5,53.666L1042.5,53.666z"/>
		<path d="M1057.415,53.666h4.233v13.669h-4.233V53.666z"/>
		<path d="M1064.66,53.666h7.02c1.528,0,2.674,0.365,3.438,1.093c0.759,0.727,1.139,1.761,1.139,3.104
			c0,1.379-0.415,2.458-1.244,3.235c-0.831,0.775-2.094,1.164-3.799,1.164h-2.312v5.073h-4.241L1064.66,53.666L1064.66,53.666z
			 M1068.901,59.494h1.035c0.812,0,1.387-0.141,1.716-0.425c0.327-0.283,0.494-0.644,0.494-1.086c0-0.429-0.144-0.792-0.431-1.09
			c-0.287-0.299-0.822-0.448-1.613-0.448h-1.201V59.494z"/>
		<path d="M1077.934,60.51c0-2.232,0.622-3.968,1.863-5.212c1.244-1.243,2.978-1.863,5.194-1.863c2.274,0,4.025,0.61,5.258,1.831
			c1.229,1.222,1.847,2.932,1.847,5.132c0,1.599-0.268,2.909-0.807,3.932c-0.539,1.021-1.313,1.814-2.33,2.387
			c-1.017,0.568-2.282,0.85-3.8,0.85c-1.541,0-2.817-0.243-3.828-0.733c-1.008-0.491-1.829-1.269-2.456-2.333
			C1078.248,63.438,1077.934,62.105,1077.934,60.51z M1082.158,60.529c0,1.379,0.257,2.371,0.769,2.974
			c0.514,0.601,1.212,0.904,2.096,0.904c0.905,0,1.607-0.296,2.106-0.886c0.496-0.592,0.745-1.651,0.745-3.18
			c0-1.287-0.26-2.227-0.78-2.821c-0.518-0.594-1.223-0.89-2.109-0.89c-0.854,0-1.536,0.302-2.052,0.905
			C1082.418,58.138,1082.158,59.136,1082.158,60.529z"/>
	</g>
</g>
<g>
	<path d="M363.309,84.454c-14.745,0-26.74-11.995-26.74-26.739c0-14.744,11.995-26.74,26.74-26.74
		c14.744,0,26.739,11.996,26.739,26.74C390.048,72.459,378.053,84.454,363.309,84.454z M363.309,35.748
		c-12.113,0-21.968,9.854-21.968,21.967c0,12.113,9.854,21.967,21.968,21.967c12.112,0,21.967-9.854,21.967-21.967
		C385.276,45.602,375.421,35.748,363.309,35.748z"/>
	<path d="M354.32,44.734h8.022v19.568h12.521v6.396H354.32V44.734z"/>
</g>
<g>
	<g>
		<path d="M763.14,86.454c-14.744,0-26.739-11.995-26.739-26.74c0-14.744,11.995-26.74,26.739-26.74s26.739,11.996,26.739,26.74
			C789.879,74.459,777.884,86.454,763.14,86.454z M763.14,37.748c-12.112,0-21.968,9.854-21.968,21.967
			c0,12.114,9.854,21.967,21.968,21.967c12.112,0,21.968-9.854,21.968-21.967C785.106,47.602,775.252,37.748,763.14,37.748z"/>
		<path d="M754.151,46.734h8.021v19.568h12.521v6.396h-20.543V46.734z"/>
	</g>
</g>
</svg>
